<?xml version="1.0" ?><svg data-name="Layer 1" id="Layer_1" viewBox="0 0 512 512" xmlns="http://www.w3.org/2000/svg"><path d="M466.61,170.49a6.24,6.24,0,0,0-1.49-4c-1.66-2-41.61-48-118.46-48-55.82,0-80.67,24.25-90.66,39-10-14.73-34.84-39-90.66-39-76.84,0-116.8,46-118.46,48a6.24,6.24,0,0,0-1.49,4V387.26a6,6,0,0,0,1,3.2,5,5,0,0,0,.41.61,6.05,6.05,0,0,0,2.58,2s.06.06.1.07.24,0,.36,0a6,6,0,0,0,1.8.36h408.7a6.2,6.2,0,0,0,2.16-.39s.05-.05.08-.06a6.07,6.07,0,0,0,2.62-2,5.87,5.87,0,0,0,.39-.58,6.12,6.12,0,0,0,1-3.21ZM346.66,131c63,0,99.78,34.09,107.43,41.95V372.62c-16.85-14.15-52.82-37.38-107.43-37.38-46.47,0-71.54,16.86-84.39,31V171.68C264.91,165.48,282.49,131,346.66,131Zm97.72,250H266.5c8.31-12.15,29.93-33.23,80.16-33.23C395.31,347.77,428.34,368.12,444.38,381ZM57.91,172.94C65.52,165.08,102.12,131,165.34,131c64.17,0,81.76,34.48,84.4,40.68V366.24c-12.85-14.14-37.92-31-84.4-31-54.6,0-90.58,23.23-107.43,37.38ZM245.51,381H67.56c16-12.88,48.92-33.23,97.78-33.23C215.59,347.77,237.21,368.86,245.51,381Z"/></svg>